# xmcd
#
# Track frame offsets:
#	150
#	7733
#	33918
#	43051
#	63508
#	81114
#	102675
#	125286
#	143899
#	146019
#	165588
#	184979
#	203622
#	206669
#	230239
#	253215
#	272715
#	273639
#	295374
#
# Disc length: 4263 seconds
#
# Revision: 1
# Processed by: cddbd v1.5.2PL0 Copyright (c) Steve Scherf et al.
# Submitted via: audiograbber 1.80
#
DISCID=2710a513
DTITLE=Die Unsichtbaren - Schwarze Erde
DYEAR=1900
DGENRE=
TTITLE0=Die U.N.S.I.C.H.T.B.A.R.E.N
TTITLE1=Manifest
TTITLE2=Das erste Buch
TTITLE3=Weg der Leiden feat. Queen Omega
TTITLE4=Reiter der Apokalypse
TTITLE5=Kuckucksnest
TTITLE6=Jagt auf die Unsichtbaren
TTITLE7=Where to go feat. Mike Ladd
TTITLE8=Stunde des Kämpfers (skit)
TTITLE9=Eroberung
TTITLE10=Müdigkeit feat. Mono
TTITLE11=Epochen
TTITLE12=Sakrileg zur Freiheit (skit)
TTITLE13=Vom Atomkern zum Stern
TTITLE14=Ende/Die letzte Vorstellung
TTITLE15=Frei
TTITLE16=Schatten (skit)
TTITLE17=Weg der Leiden GC Remix
TTITLE18=Kuckucksnest Ohvo Remix
EXTD=
EXTT0=
EXTT1=
EXTT2=
EXTT3=
EXTT4=
EXTT5=
EXTT6=
EXTT7=
EXTT8=
EXTT9=
EXTT10=
EXTT11=
EXTT12=
EXTT13=
EXTT14=
EXTT15=
EXTT16=
EXTT17=
EXTT18=
PLAYORDER=
